<?xml version="1.0" standalone="no"?>
<!DOCTYPE svg PUBLIC "-//W3C//DTD SVG 20010904//EN"
 "http://www.w3.org/TR/2001/REC-SVG-20010904/DTD/svg10.dtd">
<svg version="1.0" xmlns="http://www.w3.org/2000/svg"
 width="512.000000pt" height="512.000000pt" viewBox="0 0 512.000000 512.000000"
 preserveAspectRatio="xMidYMid meet">

<g transform="translate(0.000000,512.000000) scale(0.100000,-0.100000)"
fill="#000000" stroke="none">
<path d="M1842 4681 c2 -4 329 -578 727 -1275 l724 -1266 724 0 c401 0 723 4
721 9 -1 4 -329 578 -727 1275 l-724 1266 -724 0 c-401 0 -723 -4 -721 -9z"/>
<path d="M947 3140 l-697 -1220 364 -635 363 -635 697 1220 697 1219 -362 633
c-199 348 -362 634 -363 635 -1 1 -316 -546 -699 -1217z"/>
<path d="M2042 1853 c-22 -38 -185 -322 -362 -633 -177 -311 -324 -568 -327
-572 -2 -5 624 -8 1391 -8 l1395 0 346 608 c191 334 356 622 367 640 l20 32
-1396 0 -1395 0 -39 -67z"/>
</g>
</svg>
